# xmcd
#
# Track frame offsets: 
#        150
#        16050
#        33675
#        52031
#        72187
#        89718
#        107868
#        124255
#        144130
#        164436
#        180036
#        199442
#        214160
#        231991
#
# Disc length: 3320 seconds
#
# Revision: 0
# Processed by: cddbd v1.5.2PL0 Copyright (c) Steve Scherf et al.
# Submitted via: ExactAudioCopyFreeDBPlugin 1.0
#
DISCID=ca0cf60e
DTITLE=แช่ม แช่มรัมย์ - รวมเพลงฮิตเพลงดัง ของนาย
DYEAR=2001
DGENRE=ForLife
TTITLE0=กรุณาฟังให้จบ
TTITLE1=หัวใจมักง่าย
TTITLE2=บ้าหรือเปล่า
TTITLE3=โทรผิดหรือคิดถึง
TTITLE4=คนนี้ผมขอ
TTITLE5=แฟนเขานี่หว่า
TTITLE6=เด็กอู่
TTITLE7=กุ้งแช่น้ำตา
TTITLE8=น้องสาวคนล่าสุด
TTITLE9=พันธุ์เดียวกัน
TTITLE10=ยังไม่ตายอีกหรือ
TTITLE11=ขัวญเอย ขวัญมา
TTITLE12=นางฟ้าหน้าราม
TTITLE13=อย่าหันกลับมา
EXTD=
EXTT0=
EXTT1=
EXTT2=
EXTT3=
EXTT4=
EXTT5=
EXTT6=
EXTT7=
EXTT8=
EXTT9=
EXTT10=
EXTT11=
EXTT12=
EXTT13=
PLAYORDER=
